<?xml version="1.0" encoding="UTF-8"?>
<svg version="1.1" xmlns="http://www.w3.org/2000/svg" width="1000" height="500">
<path d="M0 0 C13.62266599 12.90963389 13.91754424 43.25314215 16.69506836 60.76171875 C16.81690491 61.52178726 16.93874146 62.28185577 17.06427002 63.06495667 C17.29213251 64.49023752 17.51641218 65.91609811 17.73626709 67.34263611 C18.58157357 74.68938179 18.58157357 74.68938179 21.75 81.0625 C22.18231934 80.11221924 22.61463867 79.16193848 23.06005859 78.18286133 C27.6199841 68.16433538 32.19724436 58.15385251 36.7913208 48.15093994 C37.63279297 46.3178303 38.47254198 44.48392986 39.31201172 42.64990234 C43.67462641 33.14750772 48.26111846 23.81103923 53.375 14.6875 C54.00402222 13.53604492 54.00402222 13.53604492 54.64575195 12.36132812 C59.15178695 4.55491524 65.17579933 -1.02550732 73.75 -3.9375 C78.42992025 -5.14384142 83.07096809 -5.19216655 87.875 -5.25 C89.09123047 -5.29350586 89.09123047 -5.29350586 90.33203125 -5.33789062 C91.11191406 -5.34626953 91.89179687 -5.35464844 92.6953125 -5.36328125 C93.75516357 -5.38515503 93.75516357 -5.38515503 94.83642578 -5.4074707 C97.63557689 -4.72000376 98.2763825 -3.36511226 99.75 -0.9375 C100.09057617 1.55941772 100.09057617 1.55941772 100.04296875 4.39990234 C100.03305908 5.46977386 100.02314941 6.53964539 100.01293945 7.64193726 C99.98804443 8.79908234 99.96314941 9.95622742 99.9375 11.1484375 C99.92046021 12.95944443 99.92046021 12.95944443 99.90307617 14.80703735 C99.85432432 19.96159213 99.77122596 25.11542601 99.68847656 30.26953125 C99.27821263 58.22505925 98.99415459 93.05847136 119.8125 114.6875 C120.58722656 115.40164062 121.36195313 116.11578125 122.16015625 116.8515625 C123.75 119.0625 123.75 119.0625 123.62109375 122.18359375 C121.64132643 128.72659158 114.25067386 133.32317205 108.75 137.0625 C102.41416472 140.26199157 94.41322732 140.05343581 87.5625 138.59765625 C85.875 137.9375 85.875 137.9375 82.75 136.0625 C81.821875 135.52882812 81.821875 135.52882812 80.875 134.984375 C69.53861061 127.63343501 63.57860303 114.42420586 60.71875 101.6875 C59.37150439 94.77121049 59.07794906 87.77212843 58.6875 80.75 C58.53437004 78.08693939 58.37553109 75.42434774 58.21484375 72.76171875 C58.11610962 71.01121216 58.11610962 71.01121216 58.01538086 69.2253418 C57.78061144 66.42733095 57.36890026 63.79766056 56.75 61.0625 C54.48769235 65.43861187 52.22813637 69.81613195 49.97088623 74.19485474 C49.1572925 75.77264414 48.3432059 77.35017949 47.52862549 78.92745972 C43.03330526 87.63476484 38.57700005 96.35624337 34.2734375 105.16015625 C33.92025452 105.87952362 33.56707153 106.59889099 33.20318604 107.34005737 C31.53103034 110.7459929 29.87022426 114.1564733 28.23046875 117.578125 C18.808359 136.96699495 18.808359 136.96699495 10.75 140.0625 C5.45672521 140.76826997 2.78333678 140.48183953 -1.5625 137.3125 C-20.19476474 122.34621838 -23.50916918 86.80947189 -25.9375 64.875 C-26.05697998 63.72128906 -26.17645996 62.56757813 -26.29956055 61.37890625 C-26.41082275 60.3115625 -26.52208496 59.24421875 -26.63671875 58.14453125 C-26.73170654 57.18780518 -26.82669434 56.2310791 -26.92456055 55.24536133 C-27.02466035 53.08947037 -27.02466035 53.08947037 -28.25 52.0625 C-28.68755615 53.02325439 -29.1251123 53.98400879 -29.57592773 54.97387695 C-34.14148396 64.99497014 -38.72242093 75.00893671 -43.31347656 85.01837158 C-44.1262771 86.79245284 -44.93642417 88.56774934 -45.74609375 90.34326172 C-62.95274999 128.03307532 -62.95274999 128.03307532 -81.25 137.0625 C-81.91773438 137.40152344 -82.58546875 137.74054688 -83.2734375 138.08984375 C-88.64339378 140.46796725 -94.45705737 140.98001576 -100.25 140.0625 C-102.578125 138.5390625 -102.578125 138.5390625 -104.25 137.0625 C-103.72462856 132.62868342 -102.16302859 130.31290714 -99.375 126.875 C-77.0615342 98.34599584 -61.27956109 62.68292085 -45.36669922 30.31494141 C-44.28420159 28.13148641 -43.18039636 25.96049989 -42.06640625 23.79296875 C-41.73471436 23.14424805 -41.40302246 22.49552734 -41.0612793 21.82714844 C-40.20846822 20.16288817 -39.3506003 18.50122162 -38.4921875 16.83984375 C-37.29016365 14.15229986 -36.45773257 12.00043204 -36.25 9.0625 C-37.89633943 7.0457342 -39.56267723 5.04510426 -41.25 3.0625 C-41.1875 1.01953125 -41.1875 1.01953125 -40.25 -0.9375 C-28.96513802 -8.42990837 -11.057358 -6.5918865 0 0 Z " fill="#FFC917" transform="translate(591.25,117.9375)"/>
<path d="M0 0 C5.45107386 4.48846123 8.56649959 10.44182232 9.625 17.375 C11.45212489 37.20379804 1.77222327 56.64521689 -10.32421875 71.8203125 C-18.10151753 80.95200622 -28.55560165 90.74626407 -40.82421875 92.78125 C-43.17001549 92.93234802 -45.08820512 92.91140868 -47.375 92.375 C-49.625 90.3125 -49.625 90.3125 -50.375 87.375 C-48.78998203 83.12450166 -46.8245346 79.28506499 -44.57128906 75.34301758 C-34.37247915 57.34206872 -28.01044227 35.14660107 -29.375 14.375 C-41.84640226 18.40727317 -50.69552753 35.59422129 -56.55664062 46.59228516 C-64.64538004 62.6103974 -69.51200794 79.95763768 -69.625 97.9375 C-69.645625 98.76185547 -69.66625 99.58621094 -69.6875 100.43554688 C-69.720052 105.52586615 -69.15079586 108.93793238 -66.375 113.375 C-64.73721953 115.01278047 -62.95105864 114.66408391 -60.6875 114.75 C-41.62341729 114.43267212 -22.04522719 100.40216321 -6.52734375 90.37109375 C-1.74547737 87.34317093 0.87651272 85.99176751 6.625 86.375 C7.625 87.375 7.625 87.375 7.9375 90.3125 C7.75127505 100.45141414 0.81007394 111.61474694 -6.25 118.5 C-23.20898094 132.61351434 -53.43896009 143.94113864 -75.4921875 142.1171875 C-88.8650652 140.24566518 -98.76359686 135.2643058 -107.125 124.625 C-115.17156942 113.3514931 -118.46650187 101.13527406 -116.75 87.25 C-112.66222523 64.23071832 -100.48822398 44.80032168 -85.375 27.375 C-84.8490625 26.76398438 -84.323125 26.15296875 -83.78125 25.5234375 C-65.65690134 6.01202134 -25.78130055 -17.41326116 0 0 Z " fill="#FFCA17" transform="translate(838.375,117.625)"/>
<path d="M0 0 C1.40802437 0.02157797 2.81606579 0.04206858 4.22412109 0.06152344 C8.60976486 0.13651238 12.99170844 0.27794605 17.375 0.4375 C18.45152832 0.47517487 18.45152832 0.47517487 19.54980469 0.51361084 C24.37001558 0.68753738 29.18400756 0.92086963 34 1.1875 C35.25506348 1.24881104 36.51012695 1.31012207 37.80322266 1.37329102 C48.94638295 2.11468609 48.94638295 2.11468609 53.375 6.4375 C56.31936538 11.58388367 55.60546542 16.82195312 54.375 22.4375 C51.31031303 28.05609278 47.43166064 29.72586143 41.4453125 31.69140625 C36.45302187 32.90454558 31.49113717 33.21366263 26.375 33.4375 C26.12302856 34.39039917 26.12302856 34.39039917 25.8659668 35.36254883 C23.81609565 43.0068457 21.53419594 50.56719627 19.1875 58.125 C18.81947266 59.31544922 18.45144531 60.50589844 18.07226562 61.73242188 C17.17479847 64.63462086 16.27568232 67.53629755 15.375 70.4375 C16.47457031 70.27636719 17.57414062 70.11523438 18.70703125 69.94921875 C23.82752783 69.31211667 28.90795772 69.25364279 34.0625 69.25 C35.44791992 69.23163086 35.44791992 69.23163086 36.86132812 69.21289062 C45.42027463 69.19440478 45.42027463 69.19440478 49.375 71.4375 C51.3125 73.5625 51.3125 73.5625 52.375 76.4375 C51.23380286 84.99647857 47.00154792 92.85724912 40.375 98.4375 C36.88291819 99.60152727 33.98352228 99.64868508 30.30078125 99.75390625 C29.6169487 99.77468735 28.93311615 99.79546844 28.2285614 99.81687927 C26.0483079 99.88216154 23.86793595 99.94116017 21.6875 100 C20.20767014 100.04320553 18.72785217 100.08682047 17.24804688 100.13085938 C13.62382378 100.23782083 9.99946811 100.33914823 6.375 100.4375 C6.10671387 101.59548096 6.10671387 101.59548096 5.83300781 102.77685547 C4.35724277 108.94051322 2.7375512 114.78546068 0.125 120.5625 C-0.17873535 121.23917725 -0.4824707 121.91585449 -0.79541016 122.61303711 C-5.64349078 133.09554253 -12.43056904 143.04188858 -23.625 147.4375 C-29.46508239 148.08639804 -34.82789085 148.28876223 -40.1875 145.75 C-46.52863688 139.73404963 -46.52863688 139.73404963 -46.85742188 135.31030273 C-46.59297663 130.90390057 -45.70892611 127.02240758 -44.53125 122.78515625 C-44.30771851 121.96104752 -44.08418701 121.13693878 -43.85388184 120.28785706 C-41.21987812 110.73001418 -38.20952719 101.29530987 -35.125 91.875 C-34.82696472 90.95915131 -34.52892944 90.04330261 -34.22186279 89.09970093 C-28.30846333 70.96840261 -21.6798568 53.15267461 -14.625 35.4375 C-15.74539673 35.35423462 -15.74539673 35.35423462 -16.88842773 35.26928711 C-17.87270752 35.1894458 -18.8569873 35.10960449 -19.87109375 35.02734375 C-21.33180298 34.91314087 -21.33180298 34.91314087 -22.82202148 34.79663086 C-27.48002457 34.19982548 -31.24999254 32.81250746 -34.625 29.4375 C-35.46907602 25.52553228 -35.39109071 21.87458051 -33.4921875 18.3125 C-31.95934785 16.25801334 -30.33053535 14.35035961 -28.625 12.4375 C-27.90570313 11.50744141 -27.90570313 11.50744141 -27.171875 10.55859375 C-19.50762487 0.80983603 -12.07985152 -0.32341059 0 0 Z " fill="#FFC917" transform="translate(171.625,112.5625)"/>
<path d="M0 0 C4.77143254 2.95172878 8.25638853 8.19980294 10.01171875 13.4765625 C12.21029213 26.10062902 9.02035085 37.7142971 1.8125 48.1875 C-7.76328126 60.36832494 -18.85224648 71.98009185 -34.859375 74.37109375 C-35.44203125 74.43425781 -36.0246875 74.49742187 -36.625 74.5625 C-36.625 75.2225 -36.625 75.8825 -36.625 76.5625 C-25.5160583 77.88967445 -17.79120524 72.74262694 -8.875 66.6875 C-4.05222371 63.55339034 -1.31952054 62.48250472 4.375 63.5625 C7.375 65.5625 7.375 65.5625 9.375 67.5625 C8.39285103 74.19200553 2.79859003 78.10136729 -2.1875 81.9375 C-2.80955322 82.41791748 -3.43160645 82.89833496 -4.07250977 83.39331055 C-19.83999751 95.43676798 -35.40294786 103.03810709 -55.625 101.5625 C-63.01177976 99.85485607 -69.78605053 96.04596289 -73.90625 89.5390625 C-80.04818691 77.73776943 -77.99483403 65.10768008 -74.36132812 52.79443359 C-70.6894872 41.66447016 -65.03293693 31.62650267 -57.625 22.5625 C-56.84640625 21.57636719 -56.0678125 20.59023437 -55.265625 19.57421875 C-43.19432685 5.18812828 -18.83952293 -7.98037818 0 0 Z M-21.625 14.5625 C-33.48022333 27.95351363 -39.04570602 48.12575127 -39.625 65.5625 C-36.51719015 65.87740098 -36.51719015 65.87740098 -34.3125 63.6875 C-24.16704848 52.7194443 -19.42405367 36.86281052 -19.5625 22.1875 C-19.57152344 20.94226563 -19.58054687 19.69703125 -19.58984375 18.4140625 C-19.60144531 17.47304687 -19.61304688 16.53203125 -19.625 15.5625 C-20.285 15.2325 -20.945 14.9025 -21.625 14.5625 Z " fill="#FFC917" transform="translate(379.625,156.4375)"/>
<path d="M0 0 C1.7421875 1.40625 1.7421875 1.40625 3.25 2.9375 C3.74757813 3.4221875 4.24515625 3.906875 4.7578125 4.40625 C9.60326267 10.05466048 10.5351002 17.61444999 10.05859375 24.83984375 C7.4330492 41.70482811 -3.62702951 55.6159391 -16.8125 65.875 C-23.5442564 70.71878918 -29.51493394 73.07968062 -37.75 73.9375 C-33.94155883 76.47646078 -32.2877371 76.37663585 -27.75 75.9375 C-23.19804141 74.5891067 -19.25320077 72.31787579 -15.34375 69.66796875 C-14.74054932 69.2618335 -14.13734863 68.85569824 -13.51586914 68.43725586 C-12.32269188 67.62167642 -11.14133756 66.78844416 -9.97436523 65.93579102 C-5.26746802 62.69019206 -2.26185895 62.43850757 3.25 62.9375 C6.25 64.125 6.25 64.125 8.25 65.9375 C8.7143132 69.04323941 8.59268262 70.44885996 6.7734375 73.04296875 C-8.63337354 87.97356927 -28.74216051 101.54035405 -50.84741211 101.35766602 C-58.74755148 101.06388633 -64.75048061 99.06798597 -70.625 93.75 C-77.63222414 85.83167107 -78.61395419 77.96412037 -78.1875 67.69140625 C-76.87702049 49.78515979 -67.7386878 32.04083853 -55.75 18.9375 C-54.90695312 17.99197266 -54.90695312 17.99197266 -54.046875 17.02734375 C-42.30725424 4.54713944 -17.28981014 -10.14113864 0 0 Z M-21.75 13.9375 C-25.63077237 18.26968166 -28.32232268 22.47677651 -30.75 27.75 C-31.0903125 28.48629639 -31.430625 29.22259277 -31.78125 29.98120117 C-36.98978676 41.59806311 -40.86705557 53.05412576 -39.75 65.9375 C-32.66890149 62.93151945 -28.92718882 55.85428553 -26 49.0625 C-21.99248904 38.71415755 -18.40030969 27.16966854 -19.75 15.9375 C-20.41 15.2775 -21.07 14.6175 -21.75 13.9375 Z " fill="#FFC917" transform="translate(472.75,157.0625)"/>
<path d="M0 0 C1.765625 1.3671875 1.765625 1.3671875 3 3 C3 3.99 3 4.98 3 6 C3.58007812 5.4946875 4.16015625 4.989375 4.7578125 4.46875 C11.07731305 -0.78707224 11.07731305 -0.78707224 15.25 -1.75 C19.09671047 -0.70089714 20.58468409 0.8466709 23 4 C28.07234228 18.64949203 25.067174 37.13572412 18.4375 50.9375 C16.94347289 53.71492089 15.44005878 55.97500277 13 58 C10.3125 58.1875 10.3125 58.1875 8 58 C6.21551481 54.88826425 5.65715369 52.35931674 5.3671875 48.796875 C5.28339844 47.8171875 5.19960938 46.8375 5.11328125 45.828125 C5.03464844 44.81234375 4.95601563 43.7965625 4.875 42.75 C4.78863281 41.71875 4.70226562 40.6875 4.61328125 39.625 C4.40151817 37.08384301 4.19736846 34.54230879 4 32 C2.34929295 37.16778078 1.5787425 41.95421318 1.21875 47.35546875 C1.13022766 48.52980217 1.13022766 48.52980217 1.03991699 49.7278595 C0.85303971 52.21395504 0.67558122 54.70058303 0.5 57.1875 C-1.79442428 89.33788313 -1.79442428 89.33788313 -10.3125 97.1875 C-15.68527786 101.53363241 -20.92961747 103.64270434 -27.85546875 103.3359375 C-31.51758556 102.76227257 -33.35811593 101.57898206 -36 99 C-44.31211255 85.52430238 -38.0630729 62.19531558 -35 48 C-33.80971837 43.03232851 -32.50186787 38.10652437 -31.125 33.1875 C-30.80982422 32.05014404 -30.49464844 30.91278809 -30.16992188 29.7409668 C-27.0012428 18.93713643 -22.89634233 6.111281 -12.75 0.0625 C-8.29011192 -1.20113496 -4.46126555 -1.36604643 0 0 Z " fill="#FFC917" transform="translate(271,156)"/>
<path d="M0 0 C3.87624165 3.77685084 5.22291357 6.76560175 5.9375 12.125 C5.57682446 20.32644822 0.59866847 26.82287395 -5.20703125 32.1953125 C-5.87798828 32.77925781 -5.87798828 32.77925781 -6.5625 33.375 C-5.95921875 33.25640625 -5.3559375 33.1378125 -4.734375 33.015625 C-3.93515625 32.88671875 -3.1359375 32.7578125 -2.3125 32.625 C-1.52359375 32.48578125 -0.7346875 32.3465625 0.078125 32.203125 C2.4375 32.375 2.4375 32.375 4.75 33.984375 C6.96122178 37.11693919 6.68528872 38.61392968 6.1875 42.375 C5.00037366 53.44247997 5.24090239 62.64356516 8.4375 73.375 C2.84342173 78.03673189 -0.83331186 79.94383021 -8.1484375 79.8359375 C-10.93754283 79.30338988 -11.82807058 78.65421363 -13.625 76.5 C-15.96383807 72.72768052 -16.73254807 70.6230358 -17.125 66.25 C-17.20878906 65.33992188 -17.29257812 64.42984375 -17.37890625 63.4921875 C-17.46978516 62.44417969 -17.46978516 62.44417969 -17.5625 61.375 C-18.8309375 62.69564453 -18.8309375 62.69564453 -20.125 64.04296875 C-34.50217045 78.84249776 -34.50217045 78.84249776 -42.375 79.875 C-45.5625 79.375 -45.5625 79.375 -47.4375 78.0625 C-51.56823022 71.86640467 -50.06858491 62.65087395 -48.984375 55.6328125 C-44.61132714 36.19262701 -35.50806561 11.42877986 -18.875 -0.5625 C-12.52764881 -2.59844283 -6.09917316 -2.78207898 0 0 Z M-11.5625 7.375 C-18.74795063 20.19028823 -22.68391167 33.82295013 -24.5625 48.375 C-18.83695024 44.11593983 -13.18257798 39.77219064 -7.5625 35.375 C-9.53482251 34.11526972 -9.53482251 34.11526972 -11.7265625 34.93359375 C-12.94472656 35.36865234 -12.94472656 35.36865234 -14.1875 35.8125 C-15.00476563 36.09996094 -15.82203125 36.38742187 -16.6640625 36.68359375 C-17.60378906 37.02583984 -17.60378906 37.02583984 -18.5625 37.375 C-18.15257812 36.30121094 -17.74265625 35.22742188 -17.3203125 34.12109375 C-16.77589284 32.68495224 -16.23163039 31.24875113 -15.6875 29.8125 C-15.41808594 29.10802734 -15.14867187 28.40355469 -14.87109375 27.67773438 C-12.29456575 20.8593615 -10.26077562 14.76724738 -10.5625 7.375 C-10.8925 7.375 -11.2225 7.375 -11.5625 7.375 Z " fill="#0DD044" transform="translate(409.5625,298.625)"/>
<path d="M0 0 C2.56297314 3.7643668 2.30032363 6.20180727 1.8828125 10.6328125 C1.94082031 11.77363281 1.94082031 11.77363281 2 12.9375 C2.49209961 13.37078613 2.98419922 13.80407227 3.49121094 14.25048828 C5.59526223 16.60307638 5.33060647 18.11751795 5.2578125 21.234375 C5.24363281 22.2759375 5.22945313 23.3175 5.21484375 24.390625 C5.17037109 26.02257812 5.17037109 26.02257812 5.125 27.6875 C5.08126312 29.8280346 5.0420849 31.96866795 5.0078125 34.109375 C4.99113525 35.11846924 4.97445801 36.12756348 4.95727539 37.16723633 C4.9940918 39.55441199 5.20677063 41.71627442 5.62890625 44.05859375 C5.75136719 45.00863281 5.87382812 45.95867187 6 46.9375 C2.28216853 50.86777898 -2.01312326 53.21518301 -7.4375 53.375 C-10.90668819 53.27229377 -11.92205546 52.98891023 -14.9375 51 C-17.55685225 47.11065879 -18.33003391 43.52726771 -19 38.9375 C-19.47308594 39.44539063 -19.94617188 39.95328125 -20.43359375 40.4765625 C-26.69371741 46.99294853 -33.41975481 53.57158228 -42.8125 54.1875 C-48.40000779 54.08516469 -51.70148217 52.12059402 -55.8125 48.375 C-58.92798682 44.25810671 -59.34924052 39.99079648 -59 34.9375 C-56.02823742 20.38945965 -47.3812718 9.46238457 -35.3828125 1.1171875 C-23.83717829 -6.14708691 -11.58204394 -7.96265521 0 0 Z M-23 4.9375 C-30.26078241 12.46545406 -35.45264072 20.36397695 -35.43359375 30.9921875 C-34.89224593 33.42093717 -33.87368758 34.35704204 -32 35.9375 C-25.89180978 32.88340489 -21.6463321 28.90967876 -17 23.9375 C-20.10540926 22.72668149 -20.10540926 22.72668149 -24 22.9375 C-23.71125 22.36902344 -23.4225 21.80054688 -23.125 21.21484375 C-20.74213704 16.25881976 -19.42652398 12.55756501 -20 6.9375 C-20.33 6.2775 -20.66 5.6175 -21 4.9375 C-21.66 4.9375 -22.32 4.9375 -23 4.9375 Z " fill="#0DD044" transform="translate(478,326.0625)"/>
<path d="M0 0 C2.625 1.375 2.625 1.375 4 4 C4.99319459 11.54333937 3.14258565 17.35145389 0 24.125 C-0.3815625 24.98609375 -0.763125 25.8471875 -1.15625 26.734375 C-2.08801839 28.83085388 -3.03576605 30.9183061 -4 33 C-3.505 33.495 -3.505 33.495 -3 34 C-2.6282666 33.5875 -2.2565332 33.175 -1.87353516 32.75 C18.4289915 10.32650061 18.4289915 10.32650061 26.5 9.75 C28.2325 9.87375 28.2325 9.87375 30 10 C32.02136706 13.03205059 32.25408401 13.64993503 32.29052734 17.05664062 C32.30328705 17.86758179 32.31604675 18.67852295 32.32919312 19.51403809 C32.33141876 20.38596802 32.33364441 21.25789795 32.3359375 22.15625 C32.3425943 23.05492798 32.3492511 23.95360596 32.35610962 24.8795166 C32.36623271 26.77919467 32.37092674 28.67890827 32.37060547 30.57861328 C32.37498375 33.48919944 32.41132014 36.39827544 32.44921875 39.30859375 C32.45508589 41.15364064 32.45905597 42.99869474 32.4609375 44.84375 C32.47530853 45.71567993 32.48967957 46.58760986 32.50448608 47.48596191 C32.45892555 53.49040751 32.45892555 53.49040751 30.16015625 56.04296875 C25.01682192 58.32166118 18.1379233 58.14844513 12.88671875 56.2265625 C9.31391027 53.72648312 8.57586811 50.85076607 7.85546875 46.8046875 C7.69071045 45.90476074 7.52595215 45.00483398 7.35620117 44.07763672 C7.23865479 43.3920166 7.1211084 42.70639648 7 42 C6.48614746 42.37809814 5.97229492 42.75619629 5.44287109 43.14575195 C3.0903231 44.87270115 0.73273155 46.59263535 -1.625 48.3125 C-2.43324219 48.90740234 -3.24148438 49.50230469 -4.07421875 50.11523438 C-16.30947419 59.01812349 -16.30947419 59.01812349 -23 58 C-25.84780619 55.76793569 -26.84997666 54.45007001 -28 51 C-28.9810454 36.28431905 -24.47169656 15.69679353 -15 4 C-10.76637116 -0.83843296 -6.07009084 -0.96220664 0 0 Z " fill="#0DD044" transform="translate(692,321)"/>
<path d="M0 0 C2.10358381 1.54262813 2.84054159 2.68108317 4 5 C4.18830062 10.46071788 3.77201964 15.59586255 3 21 C3.61875 20.23816406 3.61875 20.23816406 4.25 19.4609375 C14.53323367 7.20369022 14.53323367 7.20369022 22.75 5.9375 C25.67429925 5.79128504 26.82912028 5.91456014 29.5 7.25 C32.56192532 10.8222462 32.10359586 14.48626912 32.0625 18.9765625 C32.05871338 19.66124603 32.05492676 20.34592957 32.05102539 21.05136108 C32.03475665 23.97230491 32.0068569 26.89310707 31.97949219 29.81396484 C31.91273389 37.60887392 31.88725166 45.26292169 33 53 C27.62607557 56.58261629 24.46284737 57.63568991 18 57 C14.66879766 56.07466602 12.74390369 54.1115105 10.8828125 51.1953125 C8.8365261 46.10675958 8.56401608 40.41752292 8 35 C2.67818701 40.78993543 -2.43551863 46.6693994 -7.2734375 52.87109375 C-11.18201331 57.69049152 -11.18201331 57.69049152 -14.3125 58.875 C-17.95487274 59.04441269 -19.93611551 57.90641701 -23 56 C-26.59213096 50.61180356 -25.73017885 43.93513635 -24.58105469 37.7421875 C-18.47003055 10.25958542 -18.47003055 10.25958542 -9 1 C-5.95016004 -0.52491998 -3.3576631 -0.23562548 0 0 Z " fill="#0DD044" transform="translate(753,322)"/>
<path d="M0 0 C6.27788325 5.807042 6.27788325 5.807042 7.0625 11.125 C6.77407321 16.04686368 4.79721513 19.70542609 1.5 23.3125 C-1.01925112 25.24720209 -3.35908742 26.7331635 -6.5 27.3125 C-8.48 26.6525 -10.46 25.9925 -12.5 25.3125 C-12.5 20.0325 -12.5 14.7525 -12.5 9.3125 C-13.16 9.3125 -13.82 9.3125 -14.5 9.3125 C-18.09378942 14.70318413 -18.95356243 17.84923535 -18.5 24.3125 C-14.37136704 26.51692846 -10.45290766 27.98268048 -5.9375 29.1875 C2.82800712 31.85917854 2.82800712 31.85917854 5.5 36.3125 C6.50625275 40.4093862 6.18260838 43.74807846 4.49609375 47.61328125 C-0.77045536 56.30083662 -8.9091384 62.6221983 -18.5703125 65.6875 C-25.57916551 67.18272197 -32.66303098 67.57190744 -39.25 64.4375 C-42.5 62.3125 -42.5 62.3125 -43.5 60.3125 C-43.88356511 55.70971864 -43.94964438 53.2477603 -41.9375 49.0625 C-38.60296522 45.30046076 -35.39729263 42.62709219 -30.26953125 42.0703125 C-28.34467259 42.06349884 -26.42014855 42.17775273 -24.5 42.3125 C-24.17 43.3025 -23.84 44.2925 -23.5 45.3125 C-23.809375 45.89 -24.11875 46.4675 -24.4375 47.0625 C-25.90978898 50.18028843 -25.63077327 52.91239503 -25.5 56.3125 C-22.88250326 54.93487014 -20.88966817 53.84386569 -19.125 51.4375 C-18.2347147 48.41052999 -18.12304393 47.21135489 -19.5 44.3125 C-22.34431907 42.61363069 -25.42518947 41.52684395 -28.5 40.3125 C-30.30194475 39.48023487 -32.09397064 38.62613045 -33.875 37.75 C-34.68710937 37.35683594 -35.49921875 36.96367187 -36.3359375 36.55859375 C-38.49088571 35.31774812 -39.93995442 34.24215638 -41.5 32.3125 C-43.32458717 25.37906876 -41.91306287 20.53340237 -38.5 14.3125 C-33.66484052 6.8582958 -25.91172356 1.47065353 -17.50390625 -1.359375 C-11.48802901 -2.34443092 -5.54031102 -2.67122138 0 0 Z " fill="#0DD044" transform="translate(318.5,322.6875)"/>
<path d="M0 0 C1.6875 1.1484375 1.6875 1.1484375 3 3 C4.25486519 11.66103033 3.22825486 21.74408093 -1.41796875 29.30859375 C-1.94003906 29.86675781 -2.46210937 30.42492187 -3 31 C-3.99 31 -4.98 31 -6 31 C-6.66 29.68 -7.32 28.36 -8 27 C-9.32 35.25 -10.64 43.5 -12 52 C-8.844375 51.938125 -8.844375 51.938125 -5.625 51.875 C-2.0390625 51.8046875 -2.0390625 51.8046875 1 52 C1.66 52.66 2.32 53.32 3 54 C2.77339857 58.98523139 1.25293852 62.2466094 -2 66 C-6.29621358 68.39976784 -10.09939966 69.1534101 -15 69 C-14.97679687 69.63164062 -14.95359375 70.26328125 -14.9296875 70.9140625 C-14.72913448 80.85576215 -14.96223991 91.2061266 -20 100 C-22.69101234 102.69101234 -24.19075946 102.29887549 -27.9375 102.3125 C-28.99839844 102.32925781 -30.05929687 102.34601563 -31.15234375 102.36328125 C-34 102 -34 102 -35.81640625 100.85546875 C-43.14350117 89.36909883 -35.88392829 64.1688967 -33.1628418 51.71386719 C-24.00078991 12.40602453 -24.00078991 12.40602453 -9.6875 1.1875 C-6.22888343 -0.34072593 -3.7426218 -0.41584687 0 0 Z " fill="#0DD144" transform="translate(658,297)"/>
<path d="M0 0 C1.41152344 -0.02126953 1.41152344 -0.02126953 2.8515625 -0.04296875 C5.375 0.1875 5.375 0.1875 8.375 2.1875 C10.38038627 14.97183744 1.35428381 30.5059158 -3.47094727 42.21337891 C-6.98594475 50.76408551 -10.07305781 59.2982503 -12.625 68.1875 C-11.69848633 67.95716064 -10.77197266 67.72682129 -9.81738281 67.48950195 C-3.98104778 66.0514311 1.35704798 64.76764288 7.375 65.1875 C8.375 68.1875 8.375 68.1875 7.1875 71.0625 C3.84970882 76.81731238 0.96291507 80.42416821 -5.625 82.1875 C-9.86162157 82.59024416 -14.06019191 82.56141404 -18.3125 82.5 C-19.43978516 82.50322266 -20.56707031 82.50644531 -21.72851562 82.50976562 C-31.12682561 82.44826568 -31.12682561 82.44826568 -34.625 80.1875 C-37.54734786 74.34280428 -35.05674668 66.46005879 -33.625 60.4375 C-33.40642334 59.50228516 -33.18784668 58.56707031 -32.96264648 57.60351562 C-21.64733761 10.32210233 -21.64733761 10.32210233 -13.5625 2.875 C-9.13089144 0.32918231 -5.05444513 0.03481023 0 0 Z " fill="#0DD144" transform="translate(147.625,296.8125)"/>
<path d="M0 0 C1.68222656 -0.05607422 1.68222656 -0.05607422 3.3984375 -0.11328125 C7.32560536 0.40495277 8.86007699 1.52315188 11.625 4.3125 C14.48348206 8.67407444 14.32554251 13.27870486 13.625 18.3125 C10.00060279 28.78125246 3.1615542 35.95544434 -6.375 41.3125 C-8.02969262 42.00835527 -9.69387371 42.68318559 -11.375 43.3125 C-6.95520532 43.08584386 -4.42689693 41.78937276 -0.9375 39.25 C3.05895462 36.428179 5.64044185 35.60042026 10.625 36.3125 C11.615 36.8075 11.615 36.8075 12.625 37.3125 C11.93827099 42.41515732 10.284043 44.22431806 6.3828125 47.3984375 C-2.5276656 53.58276366 -11.51073 58.62540283 -22.66015625 57.83984375 C-27.666842 56.86732206 -30.19012221 54.49737779 -33.6875 51 C-37.21938017 45.37515381 -36.57733771 39.67212869 -35.29296875 33.4140625 C-30.96251732 18.78266489 -22.71118102 8.63890518 -9.375 1.3125 C-6.08407406 0.21552469 -3.46387841 0.0753017 0 0 Z M-5.375 10.3125 C-10.22979537 18.89087629 -12.74207349 26.62953227 -14.375 36.3125 C-13.385 36.3125 -12.395 36.3125 -11.375 36.3125 C-6.81872581 27.71575624 -2.87673252 20.27784957 -3.375 10.3125 C-4.035 10.3125 -4.695 10.3125 -5.375 10.3125 Z " fill="#0DD044" transform="translate(194.375,320.6875)"/>
<path d="M0 0 C1.65515625 -0.04253906 1.65515625 -0.04253906 3.34375 -0.0859375 C7.20351979 0.47774175 8.76841074 1.63379247 11.5 4.375 C14.36032443 8.7393856 14.19473368 13.33818083 13.5 18.375 C9.6527114 29.77946263 1.74634537 37.20145697 -8.73828125 42.5078125 C-9.31964844 42.79398437 -9.90101563 43.08015625 -10.5 43.375 C-4.26994614 41.62401944 -4.26994614 41.62401944 1.125 38.1875 C4.34524559 35.72994416 6.5496452 36.00232502 10.5 36.375 C11.49 36.87 11.49 36.87 12.5 37.375 C11.81342319 42.4765264 10.1588488 44.28446166 6.26171875 47.4609375 C-2.25549805 53.36395904 -11.33706729 58.726507 -22.0078125 57.90234375 C-26.84075304 56.87969959 -29.41826052 54.45673948 -32.8125 51.0625 C-36.34438017 45.43765381 -35.70233771 39.73462869 -34.41796875 33.4765625 C-30.6017869 20.58273958 -23.04006988 9.48006263 -11.5 2.375 C-7.59642688 0.46890744 -4.33134165 0.05059979 0 0 Z M-5.5 10.375 C-10.35479537 18.95337629 -12.86707349 26.69203227 -14.5 36.375 C-13.51 36.375 -12.52 36.375 -11.5 36.375 C-6.57592841 28.49259291 -2.72948308 19.87804201 -3.5 10.375 C-4.16 10.375 -4.82 10.375 -5.5 10.375 Z " fill="#0DD044" transform="translate(572.5,320.625)"/>
<path d="M0 0 C0.99 0.66 1.98 1.32 3 2 C2.55355616 9.58954531 -0.11500562 16.01639737 -3 23 C-2.030625 23.144375 -1.06125 23.28875 -0.0625 23.4375 C3 24 3 24 4 25 C4.40038554 29.16400962 4.44184328 31.32250696 2.125 34.875 C-0.5724228 37.5724228 -1.28505542 37.98570111 -5.125 38.0625 C-6.548125 38.0315625 -6.548125 38.0315625 -8 38 C-8.3951701 41.56056327 -8.76255613 45.12346864 -9.125 48.6875 C-9.23714844 49.69490234 -9.34929687 50.70230469 -9.46484375 51.74023438 C-9.56152344 52.71669922 -9.65820312 53.69316406 -9.7578125 54.69921875 C-9.8520752 55.59471436 -9.94633789 56.49020996 -10.04345703 57.4128418 C-9.99340896 60.39238908 -9.35014822 62.35537977 -8 65 C-6.07507643 66.02160437 -6.07507643 66.02160437 -3.875 66.3125 C-2.59625 66.539375 -1.3175 66.76625 0 67 C-1.32104221 71.2215914 -2.7528092 72.93842126 -6.5 75.25 C-7.2940625 75.75015625 -8.088125 76.2503125 -8.90625 76.765625 C-13.82820292 79.66737336 -18.35773227 79.57378994 -24 79 C-28.47663127 76.84162421 -30.98940477 74.55029447 -33 70 C-34.0716783 64.76918925 -33.82885716 60.76081389 -32.6875 55.5625 C-32.54940918 54.90797852 -32.41131836 54.25345703 -32.26904297 53.57910156 C-31.52122307 50.09043076 -30.63402862 46.67054357 -29.625 43.25 C-29.315625 41.64125 -29.315625 41.64125 -29 40 C-30.35405861 38.39588754 -30.35405861 38.39588754 -32 37 C-32.49795289 33.70106209 -32.71754284 31.25285258 -31.015625 28.28125 C-29.25477989 26.06388949 -27.7565018 24.26169247 -25.03515625 23.3203125 C-21.32759052 20.91502034 -20.36372095 16.06024224 -18.90820312 12.02929688 C-16.77744835 6.63504416 -14.13792663 3.739586 -9 1 C-5.74531799 -0.084894 -3.4103976 -0.21314985 0 0 Z " fill="#0DD144" transform="translate(244,298)"/>
<path d="M0 0 C4.25420528 1.79622001 5.94268784 3.93181369 8 8 C8.43237305 10.86254883 8.43237305 10.86254883 8.51171875 13.95703125 C8.56489258 15.62475586 8.56489258 15.62475586 8.61914062 17.32617188 C8.64169922 18.47666016 8.66425781 19.62714844 8.6875 20.8125 C8.73874023 22.56723633 8.73874023 22.56723633 8.79101562 24.35742188 C8.87332316 27.23818554 8.94253178 30.11865138 9 33 C9.24121582 32.48727539 9.48243164 31.97455078 9.73095703 31.44628906 C11.68339574 27.30002597 13.64540285 23.15867636 15.62109375 19.0234375 C17.03165816 16.06653837 18.40880588 13.10259776 19.72265625 10.1015625 C20.20605469 9.03679687 20.68945312 7.97203125 21.1875 6.875 C21.59355469 5.94429688 21.99960937 5.01359375 22.41796875 4.0546875 C24 2 24 2 27.0625 1.12109375 C30 1 30 1 31.8125 2.1875 C34.89833753 6.89746254 34.61154512 12.71600271 33.609375 18.09765625 C30.65137187 28.545475 23.05167912 37.11306901 16.375 45.4375 C15.83697754 46.11176025 15.29895508 46.78602051 14.74462891 47.48071289 C5.66187474 58.59312503 5.66187474 58.59312503 -1.375 59.375 C-5 59 -5 59 -7.25 57.0625 C-11.07513924 50.36850634 -12.5593265 43.05814599 -13.6875 35.5 C-13.81705078 34.70980469 -13.94660156 33.91960937 -14.08007812 33.10546875 C-15.63274886 23.0665077 -16.6323194 10.55531203 -10.875 1.75 C-7.08781096 -0.5552455 -4.32195056 -0.79776369 0 0 Z " fill="#0DD044" transform="translate(501,320)"/>
<path d="M0 0 C1.78356724 5.13419934 -0.01947864 9.02032806 -1.8125 13.875 C-2.28139648 15.16784912 -2.28139648 15.16784912 -2.75976562 16.48681641 C-5.35540938 23.50936321 -8.11780205 30.46547723 -11 37.375 C-11.39034424 38.3429248 -11.78068848 39.31084961 -12.18286133 40.30810547 C-15.33772226 47.65932554 -19.42691754 52.91473792 -27 56 C-30.75 55.625 -30.75 55.625 -34 55 C-35.09415171 50.94640193 -34.82677378 48.21205829 -33.77734375 44.16796875 C-33.48915771 43.04664551 -33.20097168 41.92532227 -32.90405273 40.77001953 C-32.58509033 39.58778809 -32.26612793 38.40555664 -31.9375 37.1875 C-31.45422241 35.37548096 -31.45422241 35.37548096 -30.96118164 33.52685547 C-23.95416029 7.77066531 -23.95416029 7.77066531 -16 2 C-10.78758166 -0.48774512 -5.65081317 -0.20101707 0 0 Z " fill="#0DD044" transform="translate(829,301)"/>
<path d="M0 0 C4.62 0 9.24 0 14 0 C13.2556563 10.97906961 9.79073815 21.13821455 5 31 C2.36 31 -0.28 31 -3 31 C-3.35709496 20.07553949 -2.69332596 10.66108193 0 0 Z " fill="#0DD044" transform="translate(267,292)"/>
<path d="M0 0 C2 2 2 2 2.375 4.625 C1.72942608 10.43516525 -0.37296284 14.55785343 -4.75 18.4375 C-8.81771936 20.39313431 -11.47681587 20.92704542 -16 21 C-18.5 19.5625 -18.5 19.5625 -20 18 C-19.75297943 11.08342392 -17.86958583 6.96460214 -13 2 C-8.88560506 -0.59856523 -4.73491779 -0.31048641 0 0 Z " fill="#0DD144" transform="translate(809,358)"/>
</svg>
