<?xml version="1.0" encoding="utf-8"?>
<!-- Generator: Adobe Illustrator 21.0.0, SVG Export Plug-In . SVG Version: 6.00 Build 0)  -->
<svg version="1.0" id="Layer_1" xmlns="http://www.w3.org/2000/svg" xmlns:xlink="http://www.w3.org/1999/xlink" x="0px" y="0px"
	 viewBox="0 0 52.2 44.3" style="enable-background:new 0 0 52.2 44.3;" xml:space="preserve">
<style type="text/css">
	.st0{fill:#7E57FF;}
</style>
<path class="st0" d="M23.5,13.9v16.4c4.6,0,8.1-3.5,8.1-8.1l0,0C31.6,17.4,28.1,13.9,23.5,13.9z M42.6,1H9.3C6.9,1,5,3.2,5,5.3V39
	c0,2.4,2.2,4.3,4.3,4.3h33.6c2.4,0,4.3-2.2,4.3-4.3V5.3C47,2.6,45.3,1,42.6,1z M36.5,22c0,7-5.6,12.6-12.6,12.6V30
	c-4.6,0-8.1-3.5-8.1-8.1l0,0c0-4.6,3.5-8.1,8.1-8.1V9.4C30.5,9.1,36.2,14.8,36.5,22L36.5,22z M31.9,22L31.9,22
	c0-4.6-3.5-8.1-8.1-8.1v16.4C28.1,30.1,31.9,26.6,31.9,22z"/>
</svg>
